{
DisplayStrings = (
"\U00B0"
);
date = "2013-05-07 17:01:52 +0000";
designer = "Shinji Pons";
designerURL = www.shinjipons.com;
familyName = "Modulo 22";
fontMaster = (
{
alignmentZones = (
"{128, 129}",
"{128, 129}",
"{128, 129}",
"{0, -2}",
"{0, -2}"
);
ascender = 128;
capHeight = 128;
customParameters = (
{
name = familyName;
value = "Modulo 22";
}
);
descender = 0;
guideLines = (
{
position = "{-25, 53}";
},
{
angle = 90;
position = "{83, 139}";
},
{
angle = 90;
position = "{61, 135}";
},
{
position = "{-18, 75}";
},
{
angle = 90;
position = "{30, 143}";
},
{
angle = 90;
position = "{114, 136}";
},
{
position = "{-22, 106}";
},
{
position = "{-20, 22}";
},
{
angle = 90;
position = "{8, -18}";
},
{
angle = 90;
position = "{136, -22}";
}
);
horizontalStems = (
22
);
id = "940E2F63-624A-4C3D-A909-721782B4CF41";
userData = {
GSOffsetHorizontal = 5;
GSOffsetMakeStroke = 1;
GSOffsetPosition = 0;
GSOffsetProportional = 1;
GSOffsetVertical = 2;
};
verticalStems = (
22
);
weightValue = 22;
widthValue = 128;
xHeight = 128;
}
);
glyphs = (
{
glyphname = A;
lastChange = "2013-06-13 13:20:17 +0200";
layers = (
{
background = {
paths = (
{
closed = 1;
nodes = (
"136 128 LINE",
"136 0 LINE",
"8 0 LINE",
"8 75 LINE",
"83 75 LINE",
"83 53 LINE",
"30 53 LINE",
"30 22 LINE",
"114 22 LINE",
"114 106 LINE",
"8 106 LINE",
"8 128 LINE"
);
}
);
};
layerId = "940E2F63-624A-4C3D-A909-721782B4CF41";
name = Regular;
paths = (
{
closed = 1;
nodes = (
"114 128 LINE",
"30 128 LINE",
"30 106 LINE",
"114 106 LINE"
);
},
{
closed = 0;
nodes = (
"114 106 LINE"
);
},
{
closed = 1;
nodes = (
"30 0 LINE",
"114 0 LINE",
"114 22 LINE",
"30 22 LINE"
);
},
{
closed = 1;
nodes = (
"30 53 LINE",
"61 53 LINE",
"61 75 LINE",
"30 75 LINE"
);
}
);
width = 144;
}
);
unicode = 0041;
},
{
glyphname = B;
lastChange = "2013-06-13 11:23:03 +0200";
layers = (
{
layerId = "940E2F63-624A-4C3D-A909-721782B4CF41";
name = Regular;
paths = (
{
closed = 1;
nodes = (
"30 106 LINE",
"114 106 LINE",
"114 128 LINE",
"30 128 LINE"
);
},
{
closed = 1;
nodes = (
"83 53 LINE",
"114 53 LINE",
"114 75 LINE",
"83 75 LINE"
);
},
{
closed = 1;
nodes = (
"83 0 LINE",
"114 0 LINE",
"114 22 LINE",
"83 22 LINE"
);
}
);
width = 144;
}
);
unicode = 0042;
},
{
glyphname = C;
lastChange = "2013-06-13 11:23:17 +0200";
layers = (
{
layerId = "940E2F63-624A-4C3D-A909-721782B4CF41";
name = Regular;
paths = (
{
closed = 1;
nodes = (
"30 106 LINE",
"114 106 LINE",
"114 128 LINE",
"30 128 LINE"
);
},
{
closed = 1;
nodes = (
"30 0 LINE",
"114 0 LINE",
"114 22 LINE",
"30 22 LINE"
);
}
);
width = 144;
}
);
unicode = 0043;
},
{
glyphname = D;
lastChange = "2013-06-13 11:23:30 +0200";
layers = (
{
layerId = "940E2F63-624A-4C3D-A909-721782B4CF41";
name = Regular;
paths = (
{
closed = 1;
nodes = (
"30 106 LINE",
"114 106 LINE",
"114 128 LINE",
"30 128 LINE"
);
},
{
closed = 1;
nodes = (
"30 0 LINE",
"114 0 LINE",
"114 22 LINE",
"30 22 LINE"
);
}
);
width = 144;
}
);
unicode = 0044;
},
{
glyphname = E;
lastChange = "2013-06-13 11:23:52 +0200";
layers = (
{
layerId = "940E2F63-624A-4C3D-A909-721782B4CF41";
name = Regular;
paths = (
{
closed = 1;
nodes = (
"83 106 LINE",
"114 106 LINE",
"114 128 LINE",
"83 128 LINE"
);
},
{
closed = 1;
nodes = (
"30 53 LINE",
"114 53 LINE",
"114 75 LINE",
"30 75 LINE"
);
},
{
closed = 1;
nodes = (
"30 0 LINE",
"114 0 LINE",
"114 22 LINE",
"30 22 LINE"
);
}
);
width = 144;
}
);
unicode = 0045;
},
{
glyphname = F;
lastChange = "2013-06-13 11:25:17 +0200";
layers = (
{
layerId = "940E2F63-624A-4C3D-A909-721782B4CF41";
name = Regular;
paths = (
{
closed = 1;
nodes = (
"30 106 LINE",
"114 106 LINE",
"114 128 LINE",
"30 128 LINE"
);
},
{
closed = 1;
nodes = (
"30 53 LINE",
"114 53 LINE",
"114 75 LINE",
"30 75 LINE"
);
}
);
width = 144;
}
);
unicode = 0046;
},
{
glyphname = G;
lastChange = "2013-06-13 11:25:29 +0200";
layers = (
{
layerId = "940E2F63-624A-4C3D-A909-721782B4CF41";
name = Regular;
paths = (
{
closed = 1;
nodes = (
"30 106 LINE",
"114 106 LINE",
"114 128 LINE",
"30 128 LINE"
);
},
{
closed = 1;
nodes = (
"83 53 LINE",
"114 53 LINE",
"114 75 LINE",
"83 75 LINE"
);
},
{
closed = 1;
nodes = (
"30 0 LINE",
"114 0 LINE",
"114 22 LINE",
"30 22 LINE"
);
}
);
width = 144;
}
);
unicode = 0047;
},
{
glyphname = H;
lastChange = "2013-06-13 11:25:47 +0200";
layers = (
{
layerId = "940E2F63-624A-4C3D-A909-721782B4CF41";
name = Regular;
paths = (
{
closed = 1;
nodes = (
"30 53 LINE",
"114 53 LINE",
"114 75 LINE",
"30 75 LINE"
);
}
);
width = 144;
}
);
unicode = 0048;
},
{
glyphname = I;
lastChange = "2013-06-13 11:26:15 +0200";
layers = (
{
layerId = "940E2F63-624A-4C3D-A909-721782B4CF41";
name = Regular;
paths = (
{
closed = 1;
nodes = (
"30 106 LINE",
"114 106 LINE",
"114 128 LINE",
"30 128 LINE"
);
},
{
closed = 1;
nodes = (
"30 0 LINE",
"114 0 LINE",
"114 22 LINE",
"30 22 LINE"
);
}
);
width = 144;
}
);
unicode = 0049;
},
{
glyphname = J;
lastChange = "2013-06-13 11:26:26 +0200";
layers = (
{
layerId = "940E2F63-624A-4C3D-A909-721782B4CF41";
name = Regular;
paths = (
{
closed = 1;
nodes = (
"30 0 LINE",
"114 0 LINE",
"114 22 LINE",
"30 22 LINE"
);
},
{
closed = 1;
nodes = (
"83 106 LINE",
"114 106 LINE",
"114 128 LINE",
"83 128 LINE"
);
}
);
width = 144;
}
);
unicode = 004A;
},
{
glyphname = K;
lastChange = "2013-06-13 11:26:39 +0200";
layers = (
{
layerId = "940E2F63-624A-4C3D-A909-721782B4CF41";
name = Regular;
paths = (
{
closed = 1;
nodes = (
"83 106 LINE",
"114 106 LINE",
"114 128 LINE",
"83 128 LINE"
);
},
{
closed = 1;
nodes = (
"30 53 LINE",
"114 53 LINE",
"114 75 LINE",
"30 75 LINE"
);
}
);
width = 144;
}
);
unicode = 004B;
},
{
glyphname = L;
lastChange = "2013-06-13 11:27:43 +0200";
layers = (
{
layerId = "940E2F63-624A-4C3D-A909-721782B4CF41";
name = Regular;
paths = (
{
closed = 1;
nodes = (
"30 0 LINE",
"114 0 LINE",
"114 22 LINE",
"30 22 LINE"
);
}
);
width = 144;
}
);
unicode = 004C;
},
{
glyphname = M;
lastChange = "2013-06-13 11:28:08 +0200";
layers = (
{
layerId = "940E2F63-624A-4C3D-A909-721782B4CF41";
name = Regular;
paths = (
{
closed = 1;
nodes = (
"30 106 LINE",
"114 106 LINE",
"114 128 LINE",
"30 128 LINE"
);
}
);
width = 144;
}
);
unicode = 004D;
},
{
glyphname = N;
lastChange = "2013-06-13 11:28:22 +0200";
layers = (
{
layerId = "940E2F63-624A-4C3D-A909-721782B4CF41";
name = Regular;
paths = (
{
closed = 1;
nodes = (
"30 106 LINE",
"61 106 LINE",
"61 128 LINE",
"30 128 LINE"
);
},
{
closed = 1;
nodes = (
"83 0 LINE",
"114 0 LINE",
"114 22 LINE",
"83 22 LINE"
);
}
);
width = 144;
}
);
unicode = 004E;
},
{
glyphname = O;
lastChange = "2013-06-13 11:28:32 +0200";
layers = (
{
layerId = "940E2F63-624A-4C3D-A909-721782B4CF41";
name = Regular;
paths = (
{
closed = 1;
nodes = (
"30 106 LINE",
"114 106 LINE",
"114 128 LINE",
"30 128 LINE"
);
},
{
closed = 1;
nodes = (
"30 0 LINE",
"114 0 LINE",
"114 22 LINE",
"30 22 LINE"
);
}
);
width = 144;
}
);
unicode = 004F;
},
{
glyphname = P;
lastChange = "2013-06-13 11:28:44 +0200";
layers = (
{
layerId = "940E2F63-624A-4C3D-A909-721782B4CF41";
name = Regular;
paths = (
{
closed = 1;
nodes = (
"30 106 LINE",
"114 106 LINE",
"114 128 LINE",
"30 128 LINE"
);
},
{
closed = 1;
nodes = (
"83 53 LINE",
"114 53 LINE",
"114 75 LINE",
"83 75 LINE"
);
}
);
width = 144;
}
);
unicode = 0050;
},
{
glyphname = Q;
lastChange = "2013-06-13 11:28:53 +0200";
layers = (
{
layerId = "940E2F63-624A-4C3D-A909-721782B4CF41";
name = Regular;
paths = (
{
closed = 1;
nodes = (
"30 106 LINE",
"114 106 LINE",
"114 128 LINE",
"30 128 LINE"
);
},
{
closed = 1;
nodes = (
"30 0 LINE",
"114 0 LINE",
"114 22 LINE",
"30 22 LINE"
);
}
);
width = 144;
}
);
unicode = 0051;
},
{
glyphname = R;
lastChange = "2013-06-13 11:29:04 +0200";
layers = (
{
layerId = "940E2F63-624A-4C3D-A909-721782B4CF41";
name = Regular;
paths = (
{
closed = 1;
nodes = (
"30 106 LINE",
"114 106 LINE",
"114 128 LINE",
"30 128 LINE"
);
},
{
closed = 1;
nodes = (
"83 53 LINE",
"114 53 LINE",
"114 75 LINE",
"83 75 LINE"
);
},
{
closed = 1;
nodes = (
"83 0 LINE",
"114 0 LINE",
"114 22 LINE",
"83 22 LINE"
);
}
);
width = 144;
}
);
unicode = 0052;
},
{
glyphname = S;
lastChange = "2013-06-13 11:29:12 +0200";
layers = (
{
layerId = "940E2F63-624A-4C3D-A909-721782B4CF41";
name = Regular;
paths = (
{
closed = 1;
nodes = (
"30 106 LINE",
"114 106 LINE",
"114 128 LINE",
"30 128 LINE"
);
},
{
closed = 1;
nodes = (
"30 53 LINE",
"114 53 LINE",
"114 75 LINE",
"30 75 LINE"
);
},
{
closed = 1;
nodes = (
"30 0 LINE",
"114 0 LINE",
"114 22 LINE",
"30 22 LINE"
);
}
);
width = 144;
}
);
unicode = 0053;
},
{
glyphname = T;
lastChange = "2013-06-13 11:29:23 +0200";
layers = (
{
layerId = "940E2F63-624A-4C3D-A909-721782B4CF41";
name = Regular;
paths = (
{
closed = 1;
nodes = (
"30 106 LINE",
"114 106 LINE",
"114 128 LINE",
"30 128 LINE"
);
}
);
width = 144;
}
);
unicode = 0054;
},
{
glyphname = U;
lastChange = "2013-06-13 11:29:34 +0200";
layers = (
{
layerId = "940E2F63-624A-4C3D-A909-721782B4CF41";
name = Regular;
paths = (
{
closed = 1;
nodes = (
"30 0 LINE",
"114 0 LINE",
"114 22 LINE",
"30 22 LINE"
);
}
);
width = 144;
}
);
unicode = 0055;
},
{
glyphname = V;
lastChange = "2013-06-13 11:29:46 +0200";
layers = (
{
layerId = "940E2F63-624A-4C3D-A909-721782B4CF41";
name = Regular;
paths = (
{
closed = 1;
nodes = (
"83 53 LINE",
"114 53 LINE",
"114 75 LINE",
"83 75 LINE"
);
},
{
closed = 1;
nodes = (
"30 0 LINE",
"61 0 LINE",
"61 22 LINE",
"30 22 LINE"
);
}
);
width = 144;
}
);
unicode = 0056;
},
{
glyphname = W;
lastChange = "2013-06-13 11:29:55 +0200";
layers = (
{
layerId = "940E2F63-624A-4C3D-A909-721782B4CF41";
name = Regular;
paths = (
{
closed = 1;
nodes = (
"30 0 LINE",
"114 0 LINE",
"114 22 LINE",
"30 22 LINE"
);
}
);
width = 144;
}
);
unicode = 0057;
},
{
glyphname = X;
lastChange = "2013-06-13 11:30:04 +0200";
layers = (
{
layerId = "940E2F63-624A-4C3D-A909-721782B4CF41";
name = Regular;
paths = (
{
closed = 1;
nodes = (
"30 106 LINE",
"114 106 LINE",
"114 128 LINE",
"30 128 LINE"
);
},
{
closed = 1;
nodes = (
"30 0 LINE",
"114 0 LINE",
"114 22 LINE",
"30 22 LINE"
);
}
);
width = 144;
}
);
unicode = 0058;
},
{
glyphname = Y;
lastChange = "2013-06-13 11:30:15 +0200";
layers = (
{
layerId = "940E2F63-624A-4C3D-A909-721782B4CF41";
name = Regular;
paths = (
{
closed = 1;
nodes = (
"30 53 LINE",
"114 53 LINE",
"114 75 LINE",
"30 75 LINE"
);
},
{
closed = 1;
nodes = (
"30 0 LINE",
"114 0 LINE",
"114 22 LINE",
"30 22 LINE"
);
}
);
width = 144;
}
);
unicode = 0059;
},
{
glyphname = Z;
lastChange = "2013-06-13 11:30:23 +0200";
layers = (
{
layerId = "940E2F63-624A-4C3D-A909-721782B4CF41";
name = Regular;
paths = (
{
closed = 1;
nodes = (
"30 106 LINE",
"114 106 LINE",
"114 128 LINE",
"30 128 LINE"
);
},
{
closed = 1;
nodes = (
"30 53 LINE",
"114 53 LINE",
"114 75 LINE",
"30 75 LINE"
);
},
{
closed = 1;
nodes = (
"30 0 LINE",
"114 0 LINE",
"114 22 LINE",
"30 22 LINE"
);
}
);
width = 144;
}
);
unicode = 005A;
},
{
glyphname = zero;
lastChange = "2013-06-13 11:30:39 +0200";
layers = (
{
layerId = "940E2F63-624A-4C3D-A909-721782B4CF41";
name = Regular;
paths = (
{
closed = 1;
nodes = (
"30 106 LINE",
"114 106 LINE",
"114 128 LINE",
"30 128 LINE"
);
},
{
closed = 1;
nodes = (
"30 0 LINE",
"114 0 LINE",
"114 22 LINE",
"30 22 LINE"
);
}
);
width = 144;
}
);
unicode = 0030;
},
{
glyphname = one;
lastChange = "2013-06-13 11:30:54 +0200";
layers = (
{
layerId = "940E2F63-624A-4C3D-A909-721782B4CF41";
name = Regular;
paths = (
{
closed = 1;
nodes = (
"30 106 LINE",
"61 106 LINE",
"61 128 LINE",
"30 128 LINE"
);
},
{
closed = 1;
nodes = (
"30 0 LINE",
"114 0 LINE",
"114 22 LINE",
"30 22 LINE"
);
}
);
width = 144;
}
);
unicode = 0031;
},
{
glyphname = four;
lastChange = "2013-06-13 11:31:20 +0200";
layers = (
{
layerId = "940E2F63-624A-4C3D-A909-721782B4CF41";
name = Regular;
paths = (
{
closed = 1;
nodes = (
"30 53 LINE",
"114 53 LINE",
"114 75 LINE",
"30 75 LINE"
);
}
);
width = 144;
}
);
unicode = 0034;
},
{
glyphname = five;
lastChange = "2013-06-13 11:31:34 +0200";
layers = (
{
layerId = "940E2F63-624A-4C3D-A909-721782B4CF41";
name = Regular;
paths = (
{
closed = 1;
nodes = (
"30 106 LINE",
"114 106 LINE",
"114 128 LINE",
"30 128 LINE"
);
},
{
closed = 1;
nodes = (
"30 53 LINE",
"114 53 LINE",
"114 75 LINE",
"30 75 LINE"
);
},
{
closed = 1;
nodes = (
"30 0 LINE",
"114 0 LINE",
"114 22 LINE",
"30 22 LINE"
);
}
);
width = 144;
}
);
unicode = 0035;
},
{
glyphname = seven;
lastChange = "2013-06-13 11:31:47 +0200";
layers = (
{
layerId = "940E2F63-624A-4C3D-A909-721782B4CF41";
name = Regular;
paths = (
{
closed = 1;
nodes = (
"30 106 LINE",
"114 106 LINE",
"114 128 LINE",
"30 128 LINE"
);
},
{
closed = 1;
nodes = (
"83 53 LINE",
"114 53 LINE",
"114 75 LINE",
"83 75 LINE"
);
}
);
width = 144;
}
);
unicode = 0037;
},
{
glyphname = eight;
lastChange = "2013-06-13 11:31:55 +0200";
layers = (
{
layerId = "940E2F63-624A-4C3D-A909-721782B4CF41";
name = Regular;
paths = (
{
closed = 1;
nodes = (
"30 106 LINE",
"114 106 LINE",
"114 128 LINE",
"30 128 LINE"
);
},
{
closed = 1;
nodes = (
"30 53 LINE",
"114 53 LINE",
"114 75 LINE",
"30 75 LINE"
);
},
{
closed = 1;
nodes = (
"30 0 LINE",
"114 0 LINE",
"114 22 LINE",
"30 22 LINE"
);
}
);
width = 144;
}
);
unicode = 0038;
},
{
glyphname = nine;
lastChange = "2013-06-13 11:32:03 +0200";
layers = (
{
layerId = "940E2F63-624A-4C3D-A909-721782B4CF41";
name = Regular;
paths = (
{
closed = 1;
nodes = (
"30 106 LINE",
"114 106 LINE",
"114 128 LINE",
"30 128 LINE"
);
},
{
closed = 1;
nodes = (
"30 0 LINE",
"114 0 LINE",
"114 22 LINE",
"30 22 LINE"
);
},
{
closed = 1;
nodes = (
"30 53 LINE",
"61 53 LINE",
"61 75 LINE",
"30 75 LINE"
);
}
);
width = 144;
}
);
unicode = 0039;
},
{
glyphname = asterisk;
lastChange = "2013-06-13 11:32:43 +0200";
layers = (
{
layerId = "940E2F63-624A-4C3D-A909-721782B4CF41";
name = Regular;
paths = (
{
closed = 1;
nodes = (
"30 53 LINE",
"114 53 LINE",
"114 75 LINE",
"30 75 LINE"
);
}
);
width = 144;
}
);
unicode = 002A;
},
{
glyphname = bullet;
lastChange = "2013-06-13 11:33:20 +0200";
layers = (
{
layerId = "940E2F63-624A-4C3D-A909-721782B4CF41";
name = Regular;
paths = (
{
closed = 1;
nodes = (
"30 106 LINE",
"114 106 LINE",
"114 128 LINE",
"30 128 LINE"
);
},
{
closed = 1;
nodes = (
"30 53 LINE",
"114 53 LINE",
"114 75 LINE",
"30 75 LINE"
);
},
{
closed = 1;
nodes = (
"30 0 LINE",
"114 0 LINE",
"114 22 LINE",
"30 22 LINE"
);
}
);
width = 144;
}
);
unicode = 2022;
},
{
glyphname = colon;
lastChange = "2013-06-13 11:33:22 +0200";
layers = (
{
layerId = "940E2F63-624A-4C3D-A909-721782B4CF41";
name = Regular;
paths = (
{
closed = 1;
nodes = (
"30 106 LINE",
"114 106 LINE",
"114 128 LINE",
"30 128 LINE"
);
},
{
closed = 1;
nodes = (
"30 53 LINE",
"114 53 LINE",
"114 75 LINE",
"30 75 LINE"
);
},
{
closed = 1;
nodes = (
"30 0 LINE",
"114 0 LINE",
"114 22 LINE",
"30 22 LINE"
);
}
);
width = 144;
}
);
unicode = 003A;
},
{
glyphname = comma;
lastChange = "2013-06-13 11:33:24 +0200";
layers = (
{
layerId = "940E2F63-624A-4C3D-A909-721782B4CF41";
name = Regular;
paths = (
{
closed = 1;
nodes = (
"30 106 LINE",
"114 106 LINE",
"114 128 LINE",
"30 128 LINE"
);
},
{
closed = 1;
nodes = (
"30 53 LINE",
"114 53 LINE",
"114 75 LINE",
"30 75 LINE"
);
},
{
closed = 1;
nodes = (
"30 0 LINE",
"114 0 LINE",
"114 22 LINE",
"30 22 LINE"
);
}
);
width = 144;
}
);
unicode = 002C;
},
{
glyphname = ellipsis;
lastChange = "2013-06-13 11:33:31 +0200";
layers = (
{
layerId = "940E2F63-624A-4C3D-A909-721782B4CF41";
name = Regular;
paths = (
{
closed = 1;
nodes = (
"30 106 LINE",
"114 106 LINE",
"114 128 LINE",
"30 128 LINE"
);
},
{
closed = 1;
nodes = (
"30 53 LINE",
"114 53 LINE",
"114 75 LINE",
"30 75 LINE"
);
}
);
width = 144;
}
);
unicode = 2026;
},
{
glyphname = numbersign;
lastChange = "2013-06-13 11:35:16 +0200";
layers = (
{
layerId = "940E2F63-624A-4C3D-A909-721782B4CF41";
name = Regular;
paths = (
{
closed = 1;
nodes = (
"30 106 LINE",
"114 106 LINE",
"114 128 LINE",
"30 128 LINE"
);
},
{
closed = 1;
nodes = (
"30 53 LINE",
"114 53 LINE",
"114 75 LINE",
"30 75 LINE"
);
},
{
closed = 1;
nodes = (
"30 0 LINE",
"114 0 LINE",
"114 22 LINE",
"30 22 LINE"
);
}
);
width = 144;
}
);
unicode = 0023;
},
{
glyphname = question;
lastChange = "2013-06-13 11:35:27 +0200";
layers = (
{
layerId = "940E2F63-624A-4C3D-A909-721782B4CF41";
name = Regular;
paths = (
{
closed = 1;
nodes = (
"30 106 LINE",
"114 106 LINE",
"114 128 LINE",
"30 128 LINE"
);
},
{
closed = 1;
nodes = (
"83 53 LINE",
"114 53 LINE",
"114 75 LINE",
"83 75 LINE"
);
}
);
width = 144;
}
);
unicode = 003F;
},
{
glyphname = braceleft;
lastChange = "2013-06-13 11:35:38 +0200";
layers = (
{
layerId = "940E2F63-624A-4C3D-A909-721782B4CF41";
name = Regular;
paths = (
{
closed = 1;
nodes = (
"83 106 LINE",
"114 106 LINE",
"114 128 LINE",
"83 128 LINE"
);
},
{
closed = 1;
nodes = (
"30 53 LINE",
"61 53 LINE",
"61 75 LINE",
"30 75 LINE"
);
},
{
closed = 1;
nodes = (
"83 0 LINE",
"114 0 LINE",
"114 22 LINE",
"83 22 LINE"
);
}
);
width = 144;
}
);
unicode = 007B;
},
{
glyphname = emdash;
lastChange = "2013-06-13 11:35:44 +0200";
layers = (
{
layerId = "940E2F63-624A-4C3D-A909-721782B4CF41";
name = Regular;
paths = (
{
closed = 1;
nodes = (
"30 106 LINE",
"114 106 LINE",
"114 128 LINE",
"30 128 LINE"
);
},
{
closed = 1;
nodes = (
"30 53 LINE",
"114 53 LINE",
"114 75 LINE",
"30 75 LINE"
);
},
{
closed = 1;
nodes = (
"30 0 LINE",
"114 0 LINE",
"114 22 LINE",
"30 22 LINE"
);
}
);
width = 144;
}
);
unicode = 2014;
},
{
glyphname = endash;
lastChange = "2013-06-13 11:35:48 +0200";
layers = (
{
layerId = "940E2F63-624A-4C3D-A909-721782B4CF41";
name = Regular;
paths = (
{
closed = 1;
nodes = (
"30 106 LINE",
"114 106 LINE",
"114 128 LINE",
"30 128 LINE"
);
},
{
closed = 1;
nodes = (
"30 53 LINE",
"114 53 LINE",
"114 75 LINE",
"30 75 LINE"
);
},
{
closed = 1;
nodes = (
"30 0 LINE",
"114 0 LINE",
"114 22 LINE",
"30 22 LINE"
);
}
);
width = 144;
}
);
unicode = 2013;
},
{
glyphname = hyphen;
lastChange = "2013-06-13 11:35:49 +0200";
layers = (
{
layerId = "940E2F63-624A-4C3D-A909-721782B4CF41";
name = Regular;
paths = (
{
closed = 1;
nodes = (
"30 106 LINE",
"114 106 LINE",
"114 128 LINE",
"30 128 LINE"
);
},
{
closed = 1;
nodes = (
"30 53 LINE",
"114 53 LINE",
"114 75 LINE",
"30 75 LINE"
);
},
{
closed = 1;
nodes = (
"30 0 LINE",
"114 0 LINE",
"114 22 LINE",
"30 22 LINE"
);
}
);
width = 144;
}
);
unicode = 002D;
},
{
glyphname = divide;
lastChange = "2013-06-13 11:36:20 +0200";
layers = (
{
layerId = "940E2F63-624A-4C3D-A909-721782B4CF41";
name = Regular;
paths = (
{
closed = 1;
nodes = (
"30 75 LINE",
"30 53 LINE",
"114 53 LINE",
"114 75 LINE"
);
}
);
width = 144;
}
);
unicode = 00F7;
},
{
glyphname = equal;
lastChange = "2013-06-13 11:36:23 +0200";
layers = (
{
layerId = "940E2F63-624A-4C3D-A909-721782B4CF41";
name = Regular;
paths = (
{
closed = 1;
nodes = (
"30 106 LINE",
"114 106 LINE",
"114 128 LINE",
"30 128 LINE"
);
},
{
closed = 1;
nodes = (
"30 53 LINE",
"114 53 LINE",
"114 75 LINE",
"30 75 LINE"
);
},
{
closed = 1;
nodes = (
"30 0 LINE",
"114 0 LINE",
"114 22 LINE",
"30 22 LINE"
);
}
);
width = 144;
}
);
unicode = 003D;
},
{
glyphname = minus;
lastChange = "2013-06-13 11:36:30 +0200";
layers = (
{
layerId = "940E2F63-624A-4C3D-A909-721782B4CF41";
name = Regular;
paths = (
{
closed = 1;
nodes = (
"30 75 LINE",
"30 53 LINE",
"114 53 LINE",
"114 75 LINE"
);
}
);
width = 144;
}
);
unicode = 2212;
},
{
glyphname = plus;
lastChange = "2013-06-13 11:36:42 +0200";
layers = (
{
layerId = "940E2F63-624A-4C3D-A909-721782B4CF41";
name = Regular;
paths = (
{
closed = 1;
nodes = (
"30 53 LINE",
"114 53 LINE",
"114 75 LINE",
"30 75 LINE"
);
}
);
width = 144;
}
);
unicode = 002B;
},
{
glyphname = ampersand;
lastChange = "2013-06-13 11:36:52 +0200";
layers = (
{
layerId = "940E2F63-624A-4C3D-A909-721782B4CF41";
name = Regular;
paths = (
{
closed = 1;
nodes = (
"83 106 LINE",
"114 106 LINE",
"114 128 LINE",
"83 128 LINE"
);
},
{
closed = 1;
nodes = (
"30 53 LINE",
"114 53 LINE",
"114 75 LINE",
"30 75 LINE"
);
},
{
closed = 1;
nodes = (
"30 0 LINE",
"114 0 LINE",
"114 22 LINE",
"30 22 LINE"
);
}
);
width = 144;
}
);
unicode = 0026;
},
{
glyphname = bar;
lastChange = "2013-06-13 11:37:01 +0200";
layers = (
{
layerId = "940E2F63-624A-4C3D-A909-721782B4CF41";
name = Regular;
paths = (
{
closed = 1;
nodes = (
"30 128 LINE",
"30 106 LINE",
"114 106 LINE",
"114 128 LINE"
);
},
{
closed = 1;
nodes = (
"30 75 LINE",
"30 53 LINE",
"114 53 LINE",
"114 75 LINE"
);
},
{
closed = 1;
nodes = (
"30 22 LINE",
"30 0 LINE",
"114 0 LINE",
"114 22 LINE"
);
}
);
width = 144;
}
);
unicode = 007C;
},
{
glyphname = degree;
lastChange = "2013-06-13 11:37:13 +0200";
layers = (
{
layerId = "940E2F63-624A-4C3D-A909-721782B4CF41";
name = Regular;
paths = (
{
closed = 1;
nodes = (
"30 106 LINE",
"61 106 LINE",
"61 128 LINE",
"30 128 LINE"
);
},
{
closed = 1;
nodes = (
"30 53 LINE",
"61 53 LINE",
"61 75 LINE",
"30 75 LINE"
);
},
{
closed = 1;
nodes = (
"83 0 LINE",
"114 0 LINE",
"114 22 LINE",
"83 22 LINE"
);
}
